<svg width="31" height="34" viewBox="0 0 31 34" fill="none" xmlns="http://www.w3.org/2000/svg">
<rect width="31" height="34" fill="#0B1437"/>
<path d="M5.2 29V11.5H8.625V18.875H8.75L11.875 11.5H15.4L11.75 19.85L15.575 29H11.775L8.8 21.35H8.625V29H5.2ZM23.5375 11.5C24.7042 12.45 25.5708 13.725 26.1375 15.325C26.7042 16.925 26.9875 18.575 26.9875 20.275C26.9875 21.9583 26.7125 23.5583 26.1625 25.075C25.6125 26.5917 24.7375 27.9 23.5375 29H18.3875C17.1875 27.9 16.3125 26.5917 15.7625 25.075C15.2125 23.5583 14.9375 21.9583 14.9375 20.275C14.9375 18.575 15.2208 16.925 15.7875 15.325C16.3542 13.725 17.2208 12.45 18.3875 11.5H23.5375ZM20.0625 26.1H21.8625C22.2792 25.6167 22.6292 24.8333 22.9125 23.75C23.2125 22.65 23.3625 21.4917 23.3625 20.275C23.3625 19.0583 23.2208 17.9167 22.9375 16.85C22.6542 15.7667 22.3042 14.9833 21.8875 14.5H20.0625C19.6458 14.9833 19.2875 15.7667 18.9875 16.85C18.7042 17.9167 18.5625 19.0583 18.5625 20.275C18.5625 21.4917 18.7042 22.65 18.9875 23.75C19.2875 24.8333 19.6458 25.6167 20.0625 26.1Z" fill="white"/>
<path d="M4.936 4.74V5.58C5.104 5.568 5.428 5.556 5.68 5.556H8.38V8.52C8.38 8.742 8.374 8.958 8.368 9.138H9.238C9.226 8.952 9.208 8.64 9.208 8.43V5.322C9.208 5.142 9.22 4.908 9.226 4.764C9.124 4.77 8.878 4.782 8.704 4.782H5.68C5.47 4.782 5.164 4.764 4.936 4.74ZM4.864 7.998V8.862C5.062 8.838 5.398 8.826 5.632 8.826H8.854V8.034H5.608C5.338 8.034 5.068 8.016 4.864 7.998ZM10.906 4.44L10.336 5.046C10.774 5.346 11.53 6 11.842 6.336L12.454 5.712C12.1 5.346 11.32 4.722 10.906 4.44ZM10.15 8.436L10.66 9.228C11.5 9.084 12.274 8.754 12.886 8.388C13.852 7.806 14.65 6.978 15.1 6.162L14.638 5.322C14.254 6.132 13.474 7.044 12.448 7.656C11.866 7.998 11.092 8.304 10.15 8.436ZM19.348 4.14L18.874 4.338C19.036 4.572 19.216 4.926 19.342 5.172L19.822 4.962C19.708 4.74 19.498 4.362 19.348 4.14ZM20.056 3.87L19.582 4.068C19.744 4.296 19.942 4.644 20.062 4.896L20.542 4.686C20.434 4.476 20.212 4.098 20.056 3.87ZM16.756 4.404H15.874C15.898 4.584 15.916 4.89 15.916 5.028C15.916 5.4 15.916 7.602 15.916 8.292C15.916 8.814 16.222 9.096 16.738 9.192C16.996 9.234 17.362 9.258 17.752 9.258C18.412 9.258 19.318 9.222 19.888 9.138V8.262C19.39 8.394 18.424 8.466 17.794 8.466C17.53 8.466 17.284 8.46 17.104 8.43C16.834 8.382 16.714 8.316 16.714 8.052C16.714 7.602 16.714 5.394 16.714 5.028C16.714 4.854 16.732 4.584 16.756 4.404ZM16.36 6.246L16.366 7.032C17.182 6.84 18.358 6.486 19.066 6.216C19.264 6.138 19.534 6.024 19.762 5.928L19.444 5.172C19.204 5.31 19 5.406 18.79 5.496C18.16 5.754 17.134 6.078 16.36 6.246ZM21.394 4.926V5.796C21.598 5.79 21.874 5.778 22.102 5.778C22.438 5.778 24.268 5.778 24.586 5.778C24.796 5.778 25.078 5.79 25.252 5.796V4.926C25.078 4.95 24.826 4.962 24.586 4.962C24.256 4.962 22.606 4.962 22.102 4.962C21.892 4.962 21.616 4.95 21.394 4.926ZM20.89 7.866V8.784C21.118 8.76 21.406 8.742 21.646 8.742C22.024 8.742 24.712 8.742 25.09 8.742C25.264 8.742 25.534 8.76 25.75 8.784V7.866C25.546 7.884 25.288 7.902 25.09 7.902C24.712 7.902 22.024 7.902 21.646 7.902C21.406 7.902 21.124 7.878 20.89 7.866Z" fill="white"/>
</svg>
