<svg width="45" height="33" viewBox="0 0 45 33" fill="none" xmlns="http://www.w3.org/2000/svg">
<path d="M0.72 19V8.5H2.775V12.925H2.85L4.725 8.5H6.84L4.65 13.51L6.945 19H4.665L2.88 14.41H2.775V19H0.72ZM12.2475 8.5C12.9475 9.07 13.4675 9.835 13.8075 10.795C14.1475 11.755 14.3175 12.745 14.3175 13.765C14.3175 14.775 14.1525 15.735 13.8225 16.645C13.4925 17.555 12.9675 18.34 12.2475 19H9.1575C8.4375 18.34 7.9125 17.555 7.5825 16.645C7.2525 15.735 7.0875 14.775 7.0875 13.765C7.0875 12.745 7.2575 11.755 7.5975 10.795C7.9375 9.835 8.4575 9.07 9.1575 8.5H12.2475ZM10.1625 17.26H11.2425C11.4925 16.97 11.7025 16.5 11.8725 15.85C12.0525 15.19 12.1425 14.495 12.1425 13.765C12.1425 13.035 12.0575 12.35 11.8875 11.71C11.7175 11.06 11.5075 10.59 11.2575 10.3H10.1625C9.9125 10.59 9.6975 11.06 9.5175 11.71C9.3475 12.35 9.2625 13.035 9.2625 13.765C9.2625 14.495 9.3475 15.19 9.5175 15.85C9.6975 16.5 9.9125 16.97 10.1625 17.26ZM20.2424 19L17.4374 13.195L17.3624 13.225L17.4524 14.995V19H15.5624V8.5H17.0774L19.8374 14.53L19.9124 14.5L19.7474 12.655V8.5H21.6374V19H20.2424ZM23.152 19V8.5H27.427C27.917 8.68 28.352 8.995 28.732 9.445C29.112 9.895 29.302 10.44 29.302 11.08C29.302 12.21 28.932 13 28.192 13.45V13.51C29.112 14.02 29.572 14.82 29.572 15.91C29.572 17.16 28.937 18.19 27.667 19H23.152ZM25.192 12.835H26.677C27.117 12.565 27.337 12.155 27.337 11.605C27.337 11.055 27.132 10.62 26.722 10.3H25.192V12.835ZM25.192 17.26H26.737C26.917 17.13 27.077 16.925 27.217 16.645C27.367 16.365 27.442 16.085 27.442 15.805C27.442 15.525 27.382 15.27 27.262 15.04C27.142 14.81 26.992 14.64 26.812 14.53H25.192V17.26ZM30.7417 19V8.5H32.7967V19H30.7417ZM38.9977 19L36.1927 13.195L36.1177 13.225L36.2077 14.995V19H34.3177V8.5H35.8327L38.5927 14.53L38.6677 14.5L38.5027 12.655V8.5H40.3927V19H38.9977ZM41.9073 19V8.5H43.9623V19H41.9073ZM5.61 21.5C6.31 22.07 6.83 22.835 7.17 23.795C7.51 24.755 7.68 25.745 7.68 26.765C7.68 27.775 7.515 28.735 7.185 29.645C6.855 30.555 6.33 31.34 5.61 32H2.52C1.8 31.34 1.275 30.555 0.945 29.645C0.615 28.735 0.45 27.775 0.45 26.765C0.45 25.745 0.62 24.755 0.96 23.795C1.3 22.835 1.82 22.07 2.52 21.5H5.61ZM3.525 30.26H4.605C4.855 29.97 5.065 29.5 5.235 28.85C5.415 28.19 5.505 27.495 5.505 26.765C5.505 26.035 5.42 25.35 5.25 24.71C5.08 24.06 4.87 23.59 4.62 23.3H3.525C3.275 23.59 3.06 24.06 2.88 24.71C2.71 25.35 2.625 26.035 2.625 26.765C2.625 27.495 2.71 28.19 2.88 28.85C3.06 29.5 3.275 29.97 3.525 30.26ZM10.0925 23.3H7.82754V21.5H14.3975V23.3H12.1325V32H10.0925V23.3ZM18.8312 32L18.5162 30.335H16.1462L15.8312 32H13.7912L15.8162 21.5H18.9212L20.8412 32H18.8312ZM17.3012 23.45L16.7162 26.945L16.3862 28.73H18.2612L17.9162 26.945L17.3312 23.45H17.3012ZM21.7897 32V21.5H23.8447V25.925H23.9197L25.7947 21.5H27.9097L25.7197 26.51L28.0147 32H25.7347L23.9497 27.41H23.8447V32H21.7897ZM31.4031 30.26H32.6631C32.8831 30.02 33.0381 29.78 33.1281 29.54C33.2281 29.29 33.2781 28.925 33.2781 28.445V21.5H35.3331V27.695C35.3331 28.205 35.3181 28.605 35.2881 28.895C35.2681 29.175 35.2081 29.52 35.1081 29.93C34.9381 30.66 34.4681 31.35 33.6981 32H30.3681C29.5981 31.37 29.1281 30.68 28.9581 29.93C28.8081 29.32 28.7331 28.575 28.7331 27.695V21.5H30.7881V28.445C30.7881 28.925 30.8331 29.29 30.9231 29.54C31.0231 29.78 31.1831 30.02 31.4031 30.26Z" fill="#0B1437"/>
<path d="M0.936 1.74V2.58C1.104 2.568 1.428 2.556 1.68 2.556H4.38V5.52C4.38 5.742 4.374 5.958 4.368 6.138H5.238C5.226 5.952 5.208 5.64 5.208 5.43V2.322C5.208 2.142 5.22 1.908 5.226 1.764C5.124 1.77 4.878 1.782 4.704 1.782H1.68C1.47 1.782 1.164 1.764 0.936 1.74ZM0.864 4.998V5.862C1.062 5.838 1.398 5.826 1.632 5.826H4.854V5.034H1.608C1.338 5.034 1.068 5.016 0.864 4.998ZM6.906 1.44L6.336 2.046C6.774 2.346 7.53 3 7.842 3.336L8.454 2.712C8.1 2.346 7.32 1.722 6.906 1.44ZM6.15 5.436L6.66 6.228C7.5 6.084 8.274 5.754 8.886 5.388C9.852 4.806 10.65 3.978 11.1 3.162L10.638 2.322C10.254 3.132 9.474 4.044 8.448 4.656C7.866 4.998 7.092 5.304 6.15 5.436ZM15.348 1.14L14.874 1.338C15.036 1.572 15.216 1.926 15.342 2.172L15.822 1.962C15.708 1.74 15.498 1.362 15.348 1.14ZM16.056 0.87L15.582 1.068C15.744 1.296 15.942 1.644 16.062 1.896L16.542 1.686C16.434 1.476 16.212 1.098 16.056 0.87ZM12.756 1.404H11.874C11.898 1.584 11.916 1.89 11.916 2.028C11.916 2.4 11.916 4.602 11.916 5.292C11.916 5.814 12.222 6.096 12.738 6.192C12.996 6.234 13.362 6.258 13.752 6.258C14.412 6.258 15.318 6.222 15.888 6.138V5.262C15.39 5.394 14.424 5.466 13.794 5.466C13.53 5.466 13.284 5.46 13.104 5.43C12.834 5.382 12.714 5.316 12.714 5.052C12.714 4.602 12.714 2.394 12.714 2.028C12.714 1.854 12.732 1.584 12.756 1.404ZM12.36 3.246L12.366 4.032C13.182 3.84 14.358 3.486 15.066 3.216C15.264 3.138 15.534 3.024 15.762 2.928L15.444 2.172C15.204 2.31 15 2.406 14.79 2.496C14.16 2.754 13.134 3.078 12.36 3.246ZM17.394 1.926V2.796C17.598 2.79 17.874 2.778 18.102 2.778C18.438 2.778 20.268 2.778 20.586 2.778C20.796 2.778 21.078 2.79 21.252 2.796V1.926C21.078 1.95 20.826 1.962 20.586 1.962C20.256 1.962 18.606 1.962 18.102 1.962C17.892 1.962 17.616 1.95 17.394 1.926ZM16.89 4.866V5.784C17.118 5.76 17.406 5.742 17.646 5.742C18.024 5.742 20.712 5.742 21.09 5.742C21.264 5.742 21.534 5.76 21.75 5.784V4.866C21.546 4.884 21.288 4.902 21.09 4.902C20.712 4.902 18.024 4.902 17.646 4.902C17.406 4.902 17.124 4.878 16.89 4.866Z" fill="#0B1437"/>
</svg>
